<?xml version="1.0" standalone="yes"?>
<svg xmlns="http://www.w3.org/2000/svg" width="900" height="600">
<path style="fill:#ffffff; stroke:none;" d="M0 0L0 366L54 338.258L153 287.258L528 94.7415L639 37.7415L711 1L692 0L650 0L504 0L0 0z"/>
<path style="fill:#bbd1e7; stroke:none;" d="M0 600L84 600L125 599.61L145 590.247L188 567.861L292 514.248L677 316.258L837 234.247L881 211.753L898.972 201.61L900 186L900 147L900 0L771 0C752.863 0 728.433 -4.31049 711 0.637329C695.795 4.95282 681.1 15.7029 667 22.7531C632.467 40.0196 598.304 58.0359 564 75.7415C453.15 132.955 342.567 190.97 231 246.753C175.666 274.42 121.333 304.087 66 331.753C50.279 339.614 34.547 347.578 19 355.781C14.1076 358.362 4.04116 361.667 1.02778 366.39C-1.64345 370.578 0 379.199 0 384L0 430L0 600z"/>
<path style="fill:#ffffff; stroke:none;" d="M899 202C851.674 229.623 800.705 252.12 752 277.258C654.765 327.445 557.238 377.07 460 427.258C391.722 462.499 322.958 496.923 255 532.781C212.728 555.086 170.125 580.629 126 599L126 600L900 600L900 318L900 237L899 202z"/>
</svg>
