<?xml version="1.0" standalone="yes"?>
<svg xmlns="http://www.w3.org/2000/svg" width="1920" height="1080">
<path style="fill:#8dbbdf; stroke:none;" d="M0 0L0 218L0 276L1.02778 297.363L15 305.028L43 319.028L132 363.602L474 534.969L1218 907.969L1447 1022.81L1531 1064.89L1561 1079.47L1599 1080L1676 1080L1920 1080L1920 881L1920 831C1920 826.264 1921.86 816.41 1918.4 812.699C1909.3 802.968 1889.68 798.108 1878 791.769C1841.99 772.231 1804.42 755.527 1768 736.742C1645.87 673.744 1522.7 611.699 1399 551.891C1297.92 503.021 1198.44 450.591 1098 400.37L626 164.398C549.637 126.216 473.379 87.8193 397 49.6296C377.685 39.9723 358.13 30.5168 339 20.5139C326.522 13.9891 312.622 4.18323 299 0.498413C290.029 -1.92834 278.273 0 269 0L205 0L0 0z"/>
<path style="fill:#ffffff; stroke:none;" d="M300 0L300 1L406 54.2477L610 156.248L1212 458.247L1695 700.248L1841 773.27L1920 813L1920 0L300 0M0 298L0 1080L1561 1080C1531.41 1060.09 1494.92 1046.7 1463 1030.75L1263 930.73C1052.18 825.322 841.525 719.759 631 613.752C488.812 542.156 346.598 470.593 204 399.752C155.92 375.867 108.023 351.641 60 327.63C40.6896 317.974 20.8055 303.993 0 298z"/>
</svg>
