<?xml version="1.0" standalone="yes"?>
<svg xmlns="http://www.w3.org/2000/svg" width="900" height="600">
<path style="fill:#bbd1e7; stroke:none;" d="M0 0L0 147L0 186L1.02778 201.61L19 211.753L63 234.247L223 316.258L608 514.248L712 567.861L755 590.247L775 599.61L816 600L900 600L900 430L900 384C900 379.199 901.643 370.578 898.972 366.39C895.959 361.667 885.892 358.362 881 355.781C865.453 347.578 849.721 339.614 834 331.753C778.667 304.087 724.334 274.42 669 246.753C557.432 190.969 446.849 132.955 336 75.7415C301.696 58.0359 267.533 40.0196 233 22.7531C218.9 15.7029 204.205 4.95282 189 0.637329C171.567 -4.31049 147.137 0 129 0L0 0z"/>
<path style="fill:#ffffff; stroke:none;" d="M189 0L189 1L261 37.7415L372 94.7415L747 287.258L846 338.258L900 366L900 0L189 0M0 202L0 600L774 600L774 599L711 566.781L611 515.258L197 302.742L81 243.219L0 202z"/>
</svg>
