<?xml version="1.0" standalone="yes"?>
<svg xmlns="http://www.w3.org/2000/svg" width="1920" height="1080">
<path style="fill:#ffffff; stroke:none;" d="M0 0L0 1080L1920 1080L1920 0L0 0z"/>
<path style="fill:#8dbbdf; stroke:none;" d="M166 111L166 350C198.679 360.323 230.324 382.219 261 397.486C328.334 430.998 395.727 464.541 463 498.399C681.07 608.151 898.539 719.31 1118 826.36C1187.4 860.21 1255.54 896.445 1325 930.23C1347.12 940.987 1368.67 952.969 1391 963.308C1399.21 967.111 1407.17 973.118 1416 975.39C1425.15 977.746 1436.58 976 1446 976L1507 976L1704 976L1704 819L1704 778L1702.97 762.549L1676 748.188L1604 711.914L1493 656.335L1313 566.128L689 253.399L486 151.64L438 127.664L405 111.471L380 111L329 111L166 111z"/>
</svg>
