<?xml version="1.0" standalone="no"?>
<!DOCTYPE svg PUBLIC "-//W3C//DTD SVG 20010904//EN"
 "http://www.w3.org/TR/2001/REC-SVG-20010904/DTD/svg10.dtd">
<svg version="1.0" xmlns="http://www.w3.org/2000/svg"
 width="1500.000000pt" height="500.000000pt" viewBox="0 0 1500.000000 500.000000"
 preserveAspectRatio="xMidYMid meet">

<g transform="translate(0.000000,500.000000) scale(0.100000,-0.100000)"
fill="#000000" stroke="none">
<path d="M3250 3844 c-48 -21 -68 -41 -90 -92 -30 -66 -27 -152 6 -208 14 -24
32 -44 40 -44 8 0 14 -4 14 -10 0 -5 7 -10 15 -10 8 0 15 -9 15 -19 0 -15 -11
-22 -50 -30 -72 -15 -89 -14 -167 13 -37 13 -104 36 -148 51 -44 15 -84 33
-90 39 -5 6 -44 22 -85 36 -41 13 -79 27 -85 30 -5 4 -32 13 -60 20 -27 8 -59
19 -70 25 -11 7 -40 18 -65 25 -25 7 -54 16 -65 21 -11 4 -30 11 -43 14 -22 6
-22 6 -8 -27 7 -18 19 -49 26 -68 6 -19 16 -46 21 -60 4 -14 11 -37 13 -51 3
-14 15 -36 26 -49 11 -13 20 -35 21 -49 1 -23 2 -22 11 9 5 19 12 46 15 59 5
22 14 34 60 84 29 31 124 18 146 -19 4 -8 14 -14 20 -14 18 0 63 -73 75 -122
6 -24 14 -73 17 -110 5 -49 11 -67 23 -71 66 -22 153 -55 159 -60 3 -4 13 -7
20 -7 8 0 33 -9 55 -20 46 -22 86 -25 132 -10 135 43 277 60 340 41 17 -5 49
-14 71 -20 22 -5 59 -14 82 -21 27 -7 49 -7 60 -1 10 5 38 15 63 22 25 7 50
16 55 19 6 4 35 15 65 25 30 10 60 21 65 25 6 4 22 10 38 14 15 3 27 12 27 19
1 27 18 134 29 173 12 46 84 128 125 144 51 19 116 10 116 -16 0 -8 7 -17 15
-20 17 -7 55 -87 55 -118 1 -15 6 -10 20 19 11 22 19 48 20 58 0 9 4 17 9 17
5 0 15 17 21 38 6 20 17 53 24 72 25 67 36 104 32 108 -4 4 -57 -11 -101 -29
-32 -12 -131 -48 -248 -88 -59 -21 -110 -41 -114 -44 -3 -4 -13 -7 -21 -7 -8
0 -20 -6 -26 -13 -6 -7 -42 -23 -81 -36 -38 -12 -79 -26 -90 -31 -11 -5 -52
-18 -91 -30 -66 -20 -78 -21 -143 -10 -88 15 -90 22 -21 69 19 13 45 42 57 66
18 36 20 51 14 96 -15 102 -47 152 -120 184 -45 20 -204 20 -251 -1z"/>
<path d="M9910 3445 c0 -9 -9 -33 -19 -53 -10 -20 -38 -93 -61 -162 -22 -69
-45 -134 -50 -145 -5 -11 -29 -81 -54 -155 -25 -74 -50 -142 -55 -151 -5 -9
-13 -33 -16 -53 -4 -20 -11 -38 -15 -41 -5 -3 -11 -23 -15 -45 -4 -22 -11 -42
-16 -46 -5 -3 -9 -11 -9 -19 0 -11 37 -14 195 -17 131 -2 198 -7 206 -15 14
-14 5 -32 -124 -240 -54 -87 -104 -167 -110 -177 -7 -10 -47 -73 -90 -140 -42
-67 -82 -131 -87 -143 -5 -11 -14 -24 -19 -28 -6 -3 -11 -13 -11 -21 0 -11 9
-7 29 13 63 62 271 256 404 378 49 44 118 109 155 145 72 70 197 188 330 312
45 42 82 81 82 87 0 8 -82 11 -260 11 l-260 0 0 24 c0 13 3 26 8 28 4 2 30 32
57 68 28 36 56 69 63 73 6 4 12 14 12 20 0 7 14 27 30 45 17 18 30 37 30 42 0
4 4 10 8 12 4 2 30 32 57 68 27 36 68 88 92 116 24 28 43 54 43 58 0 4 10 17
23 29 36 35 97 114 97 126 0 8 -99 11 -325 11 -286 0 -325 -2 -325 -15z"/>
<path d="M7469 3189 c-262 -26 -501 -224 -550 -456 -17 -83 -6 -262 20 -336
54 -153 162 -276 302 -345 46 -22 111 -46 144 -53 85 -18 246 -15 325 6 157
41 311 162 382 300 44 85 56 126 68 229 25 206 -56 396 -219 519 -147 110
-295 153 -472 136z m214 -299 c63 -30 133 -99 160 -158 28 -61 30 -183 4 -259
-23 -66 -94 -146 -161 -181 -46 -24 -62 -27 -151 -27 -111 0 -151 14 -224 80
-106 96 -138 274 -72 403 20 40 91 110 132 133 85 45 227 50 312 9z"/>
<path d="M13032 3190 c-172 -24 -315 -106 -407 -234 -55 -78 -80 -135 -100
-230 -69 -337 109 -641 425 -722 86 -23 244 -23 330 0 105 27 169 63 246 140
115 115 173 262 174 444 l0 62 -290 0 -290 0 0 -110 0 -110 126 0 126 0 -7
-37 c-3 -21 -17 -57 -31 -80 -71 -123 -322 -133 -424 -16 -123 139 -134 380
-25 540 51 77 107 106 211 111 76 4 89 2 139 -23 50 -24 93 -67 130 -130 9
-15 22 -12 138 36 70 28 127 56 127 61 0 22 -72 117 -124 165 -117 108 -295
157 -474 133z"/>
<path d="M5694 3143 c4 -10 111 -267 239 -571 l232 -553 110 3 109 3 207 481
c113 265 222 521 242 568 l36 86 -153 0 -152 0 -138 -345 c-76 -190 -143 -345
-149 -345 -7 0 -73 154 -148 343 l-137 342 -152 3 c-142 2 -152 1 -146 -15z"/>
<path d="M8320 2590 l0 -570 320 0 320 0 0 120 0 120 -180 0 -180 0 0 450 0
450 -140 0 -140 0 0 -570z"/>
<path d="M10560 3040 l0 -120 125 0 125 0 0 -450 0 -450 145 0 145 0 0 450 0
450 120 0 120 0 0 120 0 120 -390 0 -390 0 0 -120z"/>
<path d="M11503 2607 c-117 -303 -215 -560 -219 -569 -6 -17 5 -18 142 -18
l149 0 39 100 39 100 215 -2 214 -3 37 -95 37 -95 151 -3 152 -3 -38 98 c-21
54 -118 311 -216 571 l-178 472 -156 0 -156 0 -212 -553z m434 28 c29 -88 53
-168 53 -177 0 -16 -12 -18 -125 -18 -92 0 -125 3 -125 12 0 7 26 88 58 180
40 119 61 167 71 166 9 -2 35 -65 68 -163z"/>
<path d="M13860 2590 l0 -570 320 0 320 0 0 120 0 120 -180 0 -180 0 0 105 0
105 170 0 170 0 0 120 0 120 -170 0 -170 0 0 105 0 105 180 0 180 0 0 120 0
120 -320 0 -320 0 0 -570z"/>
<path d="M8984 3109 c-91 -21 -174 -133 -174 -235 0 -70 41 -149 98 -189 39
-27 52 -30 115 -30 59 0 78 4 104 23 43 31 53 28 53 -17 0 -55 -17 -97 -46
-110 -50 -22 -127 -9 -147 25 -11 19 -167 20 -167 2 0 -21 35 -67 70 -93 55
-41 123 -58 209 -53 84 5 121 20 169 69 54 55 62 103 62 366 l0 233 -75 0
c-68 0 -75 -2 -75 -20 0 -27 -16 -25 -52 5 -16 14 -37 25 -46 25 -9 0 -26 2
-37 4 -11 2 -38 0 -61 -5z m175 -143 c46 -46 35 -157 -18 -186 -25 -13 -92
-13 -125 0 -50 19 -71 102 -40 161 31 61 133 74 183 25z"/>
<path d="M3365 2933 c-11 -3 -24 -9 -29 -14 -6 -5 -18 -9 -27 -9 -10 0 -24 -6
-31 -13 -7 -7 -33 -19 -58 -27 -25 -7 -49 -17 -55 -20 -5 -4 -22 -10 -37 -14
-15 -3 -33 -16 -39 -29 -7 -12 -18 -26 -25 -30 -8 -4 -14 -14 -14 -22 0 -15
-86 -191 -106 -215 -6 -8 -24 -37 -39 -65 -14 -27 -35 -65 -46 -83 -17 -30
-18 -36 -5 -85 8 -28 21 -72 30 -97 52 -151 85 -250 97 -288 l13 -44 23 52
c13 29 23 56 23 59 0 4 8 16 18 27 10 11 41 67 69 124 28 58 88 183 134 278
l83 172 42 0 41 0 57 -112 c31 -62 61 -120 66 -128 4 -8 45 -91 90 -185 45
-93 87 -174 93 -180 7 -5 23 -34 36 -62 14 -29 29 -53 35 -53 11 0 28 40 46
110 5 19 21 67 35 105 14 39 27 79 29 90 2 11 9 34 16 50 31 74 30 89 -10 156
-21 35 -52 90 -70 122 -17 32 -40 72 -50 90 -11 17 -27 46 -35 64 -8 17 -18
33 -23 35 -5 1 -23 35 -41 75 -32 69 -34 72 -91 92 -31 12 -62 21 -69 21 -6 0
-11 4 -11 10 0 5 -12 13 -27 16 -16 4 -32 10 -38 14 -14 11 -76 19 -100 13z"/>
</g>
</svg>
