<?xml version="1.0" standalone="no"?>
<!DOCTYPE svg PUBLIC "-//W3C//DTD SVG 20010904//EN"
 "http://www.w3.org/TR/2001/REC-SVG-20010904/DTD/svg10.dtd">
<svg version="1.0" xmlns="http://www.w3.org/2000/svg"
 width="663.000000pt" height="663.000000pt" viewBox="0 0 663.000000 663.000000"
 preserveAspectRatio="xMidYMid meet">
<metadata>
Created by potrace 1.14, written by Peter Selinger 2001-2017
</metadata>
<g transform="translate(0.000000,663.000000) scale(0.100000,-0.100000)"
fill="#000000" stroke="none">
<path d="M3173 4703 c-3 -7 -2 -17 2 -23 3 -5 -1 -13 -10 -16 -13 -6 -14 -8
-3 -15 11 -7 11 -9 -1 -9 -7 0 -11 -6 -8 -14 3 -8 2 -16 -4 -18 -5 -2 -12 -17
-15 -33 -3 -16 -10 -32 -15 -36 -6 -3 -10 -10 -9 -15 0 -5 -2 -18 -6 -29 -4
-11 -8 -24 -8 -30 -1 -5 -7 -20 -14 -32 -7 -12 -9 -29 -6 -37 4 -11 2 -15 -8
-11 -10 4 -13 -2 -12 -22 0 -15 -5 -33 -12 -40 -7 -7 -10 -22 -7 -34 4 -15 3
-20 -5 -15 -10 6 -15 -11 -11 -40 0 -4 -4 -10 -10 -13 -6 -4 -12 -19 -13 -33
-1 -15 -6 -24 -10 -22 -4 3 -9 -1 -9 -8 -1 -15 -3 -21 -14 -65 -4 -18 -11 -30
-16 -27 -5 3 -8 2 -7 -3 2 -7 -5 -58 -14 -98 -1 -5 -7 -16 -14 -22 -7 -7 -10
-22 -7 -33 3 -11 0 -20 -6 -20 -6 0 -11 -8 -11 -19 0 -10 -7 -31 -14 -47 -8
-15 -13 -31 -10 -36 3 -4 0 -8 -5 -8 -6 0 -11 -9 -11 -20 0 -11 -6 -20 -12
-20 -9 0 -8 -4 2 -10 10 -6 11 -10 3 -10 -7 0 -13 -9 -13 -19 0 -11 -4 -23
-10 -26 -5 -3 -10 -20 -10 -36 0 -18 -4 -28 -10 -24 -6 3 -10 -5 -10 -19 0
-14 -4 -28 -10 -31 -5 -3 -10 -17 -10 -30 0 -13 -4 -27 -10 -30 -5 -3 -10 -15
-10 -26 0 -10 -4 -19 -8 -19 -4 0 -9 -12 -10 -27 -1 -15 -8 -30 -15 -35 -6 -4
-9 -8 -4 -8 4 0 1 -16 -7 -35 -8 -19 -13 -35 -10 -35 3 0 -1 -10 -8 -22 -13
-25 -15 -30 -17 -54 0 -8 -6 -12 -12 -8 -7 4 -9 0 -5 -13 7 -23 -2 -55 -14
-48 -5 3 -7 -6 -5 -20 1 -14 -2 -25 -6 -25 -5 0 -8 -3 -7 -7 4 -14 -13 -53
-23 -53 -17 0 -4 -25 16 -30 11 -3 171 -5 355 -4 232 0 337 -3 342 -10 5 -7 8
-6 8 3 0 11 3 11 17 0 14 -12 16 -12 9 1 -4 9 -2 8 7 -2 8 -10 17 -15 20 -12
9 9 2 -19 -11 -42 -6 -12 -8 -24 -5 -28 3 -3 1 -6 -5 -6 -7 0 -12 -7 -12 -16
0 -9 -5 -12 -12 -8 -6 4 -8 3 -5 -3 4 -6 -5 -23 -18 -39 -14 -16 -24 -36 -22
-44 1 -8 -4 -14 -10 -12 -11 2 -14 -3 -13 -23 1 -13 -35 -63 -42 -59 -4 3 -8
-4 -8 -15 0 -12 -4 -21 -10 -21 -5 0 -10 -7 -10 -16 0 -9 -5 -12 -12 -8 -6 4
-8 3 -5 -3 8 -12 -27 -65 -37 -56 -4 4 -4 0 -1 -8 3 -9 -1 -22 -10 -29 -8 -7
-15 -19 -15 -26 0 -8 -5 -14 -12 -14 -6 0 -9 -3 -5 -6 3 -4 -4 -15 -16 -26
-12 -11 -16 -16 -9 -13 11 6 11 3 0 -14 -7 -12 -18 -21 -25 -21 -7 0 -10 -7
-7 -15 4 -8 -1 -17 -9 -21 -9 -3 -13 -12 -10 -21 4 -11 2 -14 -5 -9 -7 4 -12
1 -12 -8 0 -9 -9 -21 -20 -28 -11 -7 -20 -24 -20 -37 0 -13 -3 -21 -7 -18 -7
7 -38 -51 -34 -66 0 -4 -6 -10 -14 -13 -8 -4 -15 -15 -15 -26 0 -10 -4 -17 -8
-14 -4 2 -14 -10 -22 -27 -7 -18 -22 -39 -32 -48 -10 -9 -18 -24 -18 -33 0 -9
-4 -16 -10 -16 -5 0 -10 -7 -10 -16 0 -8 -4 -12 -10 -9 -9 5 -15 -16 -11 -38
1 -5 -3 -6 -9 -2 -5 3 -10 1 -10 -5 0 -6 -9 -21 -20 -33 -11 -12 -18 -27 -16
-34 3 -7 -2 -13 -10 -13 -8 0 -12 -5 -9 -10 3 -6 2 -10 -4 -10 -6 0 -18 -17
-28 -37 -19 -43 -54 -96 -66 -101 -4 -2 -5 -8 -1 -13 3 -5 0 -9 -6 -9 -6 0 -9
-4 -6 -9 3 -4 -5 -21 -19 -37 -13 -15 -22 -31 -19 -35 2 -4 -2 -9 -10 -12 -8
-3 -22 -23 -32 -44 -10 -21 -20 -40 -23 -43 -4 -3 -13 -14 -21 -25 -14 -19
-14 -19 5 -5 11 8 31 27 44 42 13 15 27 25 32 22 5 -3 9 1 9 8 0 8 9 20 20 28
11 8 20 21 20 30 0 13 1 13 10 0 8 -13 10 -12 10 3 0 9 5 17 10 17 6 0 26 16
45 35 19 19 35 32 35 28 0 -3 11 7 25 23 14 16 25 33 25 38 0 5 3 7 6 3 3 -3
32 21 65 54 32 32 63 59 69 59 6 0 8 5 5 10 -3 6 1 10 9 10 8 0 22 12 30 28 8
15 15 24 16 20 0 -3 16 9 35 28 20 19 40 34 46 34 5 0 7 5 4 10 -3 6 -1 10 4
10 6 0 37 27 70 60 32 32 61 57 64 54 3 -3 8 4 12 15 6 19 17 26 38 22 5 -1 6
3 2 8 -3 6 4 15 15 21 11 6 20 18 20 27 0 9 3 14 6 11 3 -4 30 17 59 45 119
114 157 147 167 141 7 -4 8 -2 4 4 -4 7 -2 12 4 12 6 0 8 4 5 10 -3 6 1 10 9
10 9 0 16 7 16 16 0 8 3 13 8 10 4 -2 16 2 27 10 10 8 16 14 12 14 -4 0 32 38
78 86 51 50 90 82 97 78 7 -4 8 -3 4 4 -4 6 4 17 18 24 14 7 26 18 28 23 2 6
6 9 10 8 4 -2 12 6 18 17 6 11 15 18 21 15 5 -4 9 1 9 10 0 9 5 13 10 10 6 -3
10 -1 10 5 0 18 245 252 254 242 3 -3 6 2 6 11 0 9 5 17 10 17 6 0 30 20 55
43 25 24 47 42 50 39 3 -3 5 0 5 6 0 18 78 93 83 79 4 -8 6 -7 6 3 1 17 35 50
51 50 6 0 10 18 10 40 l0 40 -484 0 c-432 0 -485 2 -490 16 -8 21 -9 18 12 42
10 11 27 33 38 48 10 15 28 36 39 48 11 12 20 23 20 26 0 5 28 40 52 65 7 7 9
15 6 19 -3 3 2 8 11 12 9 3 13 10 10 15 -3 5 2 9 11 9 9 0 14 4 10 9 -3 5 5
17 17 25 12 9 18 16 13 16 -6 1 1 10 14 20 13 11 20 20 17 20 -4 0 6 13 21 28
47 48 113 126 113 134 0 5 14 22 30 40 17 17 30 37 30 43 0 7 7 15 15 19 8 3
15 10 15 16 0 17 26 40 35 32 5 -4 5 -2 1 5 -4 7 8 27 29 48 19 20 35 41 35
46 0 6 5 7 11 3 7 -4 10 -1 7 6 -2 8 13 31 34 52 21 21 38 41 38 46 1 6 41 57
78 98 7 8 10 14 5 14 -4 0 3 7 15 16 12 8 22 22 22 30 0 8 5 12 10 9 6 -3 10
1 10 9 0 8 17 32 38 53 20 20 36 44 34 51 -2 8 1 11 7 7 6 -3 11 -2 11 3 0 6
13 24 29 41 32 34 46 70 28 72 -7 1 -286 2 -621 3 -466 1 -610 -2 -613 -11z"/>
</g>
</svg>
